<svg width="15" height="19" viewBox="0 0 15 19" fill="none" xmlns="http://www.w3.org/2000/svg">
<path d="M0.249023 1.17415V1.74402L1.1711 1.76381C1.80429 1.77568 2.13671 1.79546 2.24356 1.83504C2.4533 1.90627 2.64722 2.1081 2.71054 2.31389C2.78573 2.5632 2.78573 16.0976 2.71054 16.3469C2.64722 16.5527 2.4533 16.7545 2.24356 16.8257C2.13671 16.8653 1.80429 16.8851 1.1711 16.897L0.249023 16.9167V17.4866V18.0565H7.31301H14.377V17.914C14.377 17.7715 14.6778 11.97 14.7055 11.5742L14.7213 11.3684H14.2583H13.7953L13.6884 11.9106C13.2056 14.3682 12.5368 15.7731 11.591 16.3113C10.847 16.7387 9.8972 16.9049 8.00556 16.9365C6.82229 16.9563 6.35531 16.9326 5.96749 16.8257C5.7617 16.7664 5.53217 16.5368 5.4649 16.3152C5.42136 16.1688 5.41345 14.9222 5.41345 9.33038C5.41345 1.86274 5.40158 2.26244 5.65089 2.01312C5.85668 1.80734 5.99519 1.78359 7.00829 1.76381L7.92641 1.74402V1.17415V0.604282H4.08772H0.249023V1.17415Z" fill="white"/>
</svg>
