<svg width="7" height="13" viewBox="0 0 7 13" fill="none" xmlns="http://www.w3.org/2000/svg">
<path d="M2.91237 0.742235C1.85574 0.82534 0.953451 0.892616 0.905962 0.892616C0.814941 0.896574 0.814941 0.904489 0.814941 1.37542V1.85823L1.24234 1.83052C1.76472 1.79886 2.27918 1.85823 2.49684 1.97695C2.59578 2.03235 2.68284 2.12337 2.73429 2.22231C2.81344 2.37665 2.81344 2.45975 2.81344 6.45674C2.81344 10.893 2.82531 10.6674 2.59578 10.8376C2.46518 10.9326 2.14463 10.984 1.44021 11.0117L0.854516 11.0355V11.546V12.0565H3.88194H6.90936V11.542V11.0276H6.74315C6.22473 11.0196 5.52822 10.9484 5.37388 10.889C5.04542 10.7545 5.06916 11.2056 5.05729 5.57424L5.04937 0.579981L4.93857 0.583939C4.87921 0.587895 3.969 0.659129 2.91237 0.742235Z" fill="white"/>
</svg>
