<svg width="15" height="19" viewBox="0 0 15 19" fill="none" xmlns="http://www.w3.org/2000/svg">
<path d="M3.04032 0.311438C1.98369 0.382671 1.07349 0.442032 1.01413 0.442032L0.90332 0.44599V0.916922V1.38785L1.52859 1.3839C1.90455 1.37994 2.24093 1.39973 2.37944 1.43139C2.6525 1.49075 2.85433 1.64904 2.92952 1.86274C2.97305 1.98147 2.98096 3.37843 2.98096 9.25124C2.98096 15.9274 2.97701 16.5052 2.91369 16.6397C2.79101 16.9088 2.59314 16.9682 1.68689 17.0117L1.14077 17.0355V17.546V18.0565H4.06925H6.99774V17.546V17.0355L6.45557 17.0117C5.54537 16.9682 5.3475 16.9088 5.22482 16.6397C5.16546 16.5091 5.15754 16.24 5.15754 13.9408C5.15754 11.0796 5.16941 10.9173 5.43852 10.1021C5.7749 9.08898 6.39225 8.46767 7.33412 8.19461C7.60322 8.11942 7.73777 8.10359 8.26411 8.10754C8.925 8.10754 9.17432 8.16295 9.55423 8.38456C9.79167 8.52307 10.132 8.89902 10.2547 9.16021C10.4803 9.63906 10.4803 9.59553 10.4803 13.177C10.4803 16.897 10.4961 16.7189 10.1914 16.8772C10.041 16.9524 9.4355 17.0196 8.83002 17.0276H8.65985V17.542V18.0565H11.5686H14.4773V17.542V17.0276H14.311C13.8243 17.0196 13.0961 16.9524 12.9655 16.897C12.6568 16.7664 12.6806 17.0236 12.6529 13.2284C12.6331 10.3197 12.6212 9.7934 12.5658 9.48868C12.4036 8.61013 12.1068 8.01652 11.5804 7.50602C10.9789 6.92428 10.2824 6.65121 9.25742 6.59185C7.71007 6.50479 6.36851 7.14589 5.42269 8.43205L5.17733 8.76447V4.46672V0.16897L5.07048 0.172928C5.00716 0.176886 4.09695 0.236246 3.04032 0.311438Z" fill="white"/>
</svg>
