<svg width="12" height="13" viewBox="0 0 12 13" fill="none" xmlns="http://www.w3.org/2000/svg">
<path d="M5.69009 0.524559C4.28125 0.69077 3.31169 1.15775 2.42127 2.09565C2.0097 2.52305 1.72872 2.92671 1.47545 3.44909C0.600858 5.23388 0.628559 7.91305 1.53481 9.63848C2.13633 10.7782 3.09007 11.6489 4.22189 12.096C5.54763 12.6184 7.45906 12.5393 8.71751 11.91C9.64751 11.447 10.5498 10.5091 11.0326 9.51185C11.5431 8.45126 11.7568 7.08595 11.6262 5.70481C11.4798 4.15351 10.9455 2.9465 9.98389 1.98089C9.01828 1.01132 7.90624 0.556218 6.42617 0.520601C6.09771 0.512687 5.76528 0.516644 5.69009 0.524559ZM6.90898 1.55349C7.9379 1.76323 8.61858 2.5191 8.93121 3.78547C9.323 5.38426 9.2953 7.9368 8.87581 9.38125C8.61858 10.2677 8.17931 10.8732 7.56986 11.1779C7.16621 11.3797 6.84961 11.4431 6.24413 11.4431C5.48826 11.4431 5.10044 11.3243 4.60972 10.9563C3.70743 10.2717 3.26024 8.56207 3.32752 6.06098C3.39479 3.60738 3.9053 2.29748 4.98963 1.76719C5.16771 1.68012 5.44077 1.58515 5.59116 1.55349C5.96315 1.4783 6.53698 1.4783 6.90898 1.55349Z" fill="white"/>
</svg>
