<svg width="20" height="19" viewBox="0 0 20 19" fill="none" xmlns="http://www.w3.org/2000/svg">
<path d="M0.897949 1.17417V1.74403L1.89917 1.75986C3.15763 1.77965 3.29614 1.82318 3.4861 2.22684C3.5692 2.40492 3.5692 2.41679 3.59295 7.98487C3.61274 13.5094 3.61669 13.5688 3.6998 14.0199C3.93329 15.2309 4.34486 16.0817 5.05323 16.7901C5.89616 17.637 7.04381 18.1356 8.64261 18.3573C9.34703 18.4562 11.0764 18.4562 11.7808 18.3612C13.1422 18.1713 14.1197 17.823 14.8716 17.2571C15.9361 16.4537 16.5258 15.2151 16.7909 13.2205C16.8503 12.801 16.8622 12.0571 16.8819 7.90573C16.9096 2.73734 16.9017 2.95896 17.0996 2.48803C17.1867 2.28224 17.4241 2.04084 17.6497 1.93399C17.9465 1.79548 18.2473 1.75195 18.9319 1.75195H19.5374V1.17812V0.604298H16.2131H12.8889V1.17417V1.74403L13.7121 1.75986C14.4481 1.77569 14.555 1.78757 14.7608 1.86671C15.2436 2.05667 15.4731 2.3416 15.6116 2.93917C15.6749 3.21223 15.6789 3.62776 15.6789 8.14317C15.6789 13.3907 15.671 13.6519 15.481 14.3959C15.3346 14.9776 15.0655 15.4406 14.6143 15.8918C14.0445 16.4617 13.2926 16.8257 12.2913 17.0157C11.769 17.1107 10.2335 17.1107 9.66362 17.0157C8.52784 16.8178 7.81551 16.4735 7.21002 15.8324C6.67182 15.2586 6.34731 14.4394 6.24046 13.3788C6.2088 13.0622 6.20088 11.3803 6.2088 7.68807L6.22067 2.4445L6.32356 2.22288C6.41854 2.02501 6.45416 1.98544 6.65994 1.8865L6.89343 1.77173L7.81551 1.75986L8.73363 1.74403V1.17417V0.604298H4.81579H0.897949V1.17417Z" fill="white"/>
</svg>
