<svg width="13" height="13" viewBox="0 0 13 13" fill="none" xmlns="http://www.w3.org/2000/svg">
<path d="M4.68755 0.5404C4.01083 0.611633 3.18373 0.837206 2.68905 1.08257C1.98463 1.43478 1.39102 1.98486 1.12983 2.52702C0.935919 2.93068 0.8726 3.24331 0.896345 3.69842C0.924047 4.29203 1.17732 4.66798 1.67596 4.85794C1.9411 4.95687 2.47535 4.98062 2.74841 4.90147C3.21143 4.76692 3.49637 4.38305 3.53198 3.8488C3.55573 3.46493 3.47658 3.2077 3.20352 2.79217C3.08084 2.60221 2.98586 2.41621 2.98586 2.3529C2.98586 2.29749 3.03335 2.19064 3.09271 2.12337C3.44096 1.70784 4.29181 1.49414 5.41571 1.54163C6.78894 1.60099 7.36672 1.9532 7.63582 2.89506C7.69123 3.0771 7.71101 3.34621 7.72289 4.07041L7.74267 5.00832L7.65165 5.02811C7.6002 5.03998 7.29944 5.09538 6.98285 5.15079C4.64797 5.56236 2.80778 6.16784 1.76302 6.86039C0.500604 7.69936 -0.0138603 8.95782 0.33835 10.3469C0.599539 11.3758 1.48204 12.1396 2.68905 12.377C3.12833 12.4641 4.13747 12.4483 4.66776 12.3414C5.80354 12.1158 6.76519 11.633 7.51314 10.9088L7.88118 10.5527L7.94846 10.7941C8.19777 11.6964 8.83096 12.2187 9.75304 12.282C10.4456 12.3295 11.2133 12.0604 11.7278 11.5974C12.1235 11.2373 12.2541 10.8772 12.0879 10.6001C11.985 10.43 11.8623 10.4339 11.4468 10.6199C11.1619 10.7505 11.0788 10.7703 10.8215 10.7703C10.4693 10.7703 10.3189 10.703 10.1527 10.4696C10.0894 10.3825 10.0182 10.2202 9.99444 10.1134C9.96674 9.98279 9.95091 8.87867 9.95091 6.8406C9.95091 3.71425 9.93508 3.33829 9.79657 2.78821C9.52351 1.72367 8.75973 1.01529 7.57646 0.726398C6.8483 0.544357 5.47507 0.457294 4.68755 0.5404ZM7.72289 7.21656C7.7031 8.4394 7.68331 8.61748 7.50127 9.14382C7.35485 9.56331 7.1451 9.88386 6.78498 10.244C6.49609 10.5289 6.38132 10.612 6.06869 10.7624C5.8629 10.8613 5.58192 10.9721 5.43946 11.0078C5.11099 11.0909 4.29972 11.1304 4.01479 11.075C3.48054 10.9761 3.06501 10.711 2.84735 10.335C2.61386 9.93926 2.51888 9.10029 2.64948 8.5977C2.85131 7.83392 3.46471 7.22447 4.4501 6.82082C5.25742 6.48839 5.92226 6.32218 7.49731 6.06891C7.76642 6.02538 7.74663 5.91457 7.72289 7.21656Z" fill="white"/>
</svg>
