<svg width="16" height="19" viewBox="0 0 16 19" fill="none" xmlns="http://www.w3.org/2000/svg">
<path d="M0 1.17415V1.74402L0.922077 1.75985C1.78479 1.77172 1.85207 1.77963 2.04994 1.8667C2.29926 1.9775 2.39424 2.10019 2.47338 2.41282C2.52483 2.61861 2.53274 3.46945 2.52483 9.43327C2.51296 14.847 2.50109 16.2479 2.46151 16.3667C2.39424 16.5566 2.19241 16.7584 1.99454 16.8257C1.88769 16.8653 1.55526 16.8851 0.922077 16.897L0 16.9167V17.4866V18.0565H7.341H14.682V17.9219C14.682 17.7478 14.9867 12.1481 15.0184 11.7523L15.0421 11.4476H14.587C14.1438 11.4476 14.128 11.4516 14.1082 11.5347C14.0963 11.5861 14.0449 11.8394 13.9895 12.1006C13.5739 14.0674 13.0555 15.31 12.3788 15.963C11.6546 16.6674 10.1429 16.984 7.4993 16.988C6.31207 16.988 5.66702 16.8851 5.43353 16.6635C5.15651 16.3944 5.16838 16.5527 5.15255 12.8169L5.14068 9.45702L5.80553 9.48076C7.61011 9.552 8.43721 10.0467 8.86461 11.321C8.95958 11.6099 9.08226 12.1876 9.12184 12.5438L9.14954 12.7931H9.66005H10.1706V8.95443V5.11574H9.664H9.16141L9.07435 5.64999C8.86856 6.93615 8.43325 7.67222 7.66551 8.04422C7.11543 8.30541 6.40705 8.43996 5.56808 8.43996H5.14068L5.15255 5.46003C5.16442 2.69775 5.17234 2.47218 5.23962 2.29806C5.42166 1.81525 5.7897 1.71632 7.36079 1.71236C9.74711 1.71236 11.0372 1.98542 11.7535 2.64631C12.4461 3.29137 12.9843 4.55378 13.3009 6.27921L13.3919 6.77785H13.8984H14.405V6.60768C14.405 6.51666 14.3417 5.2028 14.2665 3.69107C14.1913 2.17933 14.128 0.865471 14.128 0.770494V0.604282H7.06398H0V1.17415Z" fill="white"/>
</svg>
