<svg width="15" height="13" viewBox="0 0 15 13" fill="none" xmlns="http://www.w3.org/2000/svg">
<path d="M2.75928 0.742235C1.71453 0.82534 0.82015 0.892616 0.772661 0.892616C0.681641 0.896574 0.681641 0.904489 0.681641 1.36751V1.83844L1.34649 1.83448C2.30814 1.82657 2.5812 1.93342 2.69992 2.3529C2.75928 2.57452 2.75137 10.4498 2.68805 10.6279C2.59307 10.9009 2.37541 10.9682 1.46521 11.0117L0.919085 11.0355V11.546V12.0565H3.82778H6.73648V11.542V11.0276H6.59006C6.11517 11.0196 5.39096 10.9484 5.26433 10.897C4.96356 10.7703 4.97543 10.8772 4.96356 8.09907C4.95169 5.45156 4.96752 5.12705 5.13769 4.41867C5.37909 3.43328 5.86585 2.75656 6.59402 2.40039C7.02538 2.18669 7.30239 2.12337 7.86435 2.09567C9.16634 2.04027 9.97365 2.60222 10.1992 3.72612C10.2546 4.00314 10.2586 4.4345 10.2507 7.2878C10.2388 10.8099 10.2467 10.6674 10.0211 10.8376C9.8945 10.9286 9.57791 10.9801 8.94472 11.0117L8.43817 11.0355V11.546V12.0565H11.3469H14.2556V11.546V11.0355L13.753 11.0117C13.1158 10.9801 12.7992 10.9286 12.6726 10.8376C12.447 10.6714 12.4549 10.8257 12.4312 7.08993C12.4114 3.79736 12.4075 3.63115 12.3283 3.29081C11.9405 1.58912 10.8482 0.694746 9.03574 0.591853C7.45278 0.500833 6.11913 1.16568 5.09416 2.55077L4.85671 2.87528L4.84484 1.72763L4.83693 0.579981L4.7459 0.583939C4.69842 0.587895 3.80404 0.659129 2.75928 0.742235Z" fill="white"/>
</svg>
