<svg width="11" height="13" viewBox="0 0 11 13" fill="none" xmlns="http://www.w3.org/2000/svg">
<path d="M8.31319 0.524576C8.26966 0.532491 8.13511 0.560192 8.01639 0.583937C7.6998 0.643298 7.12597 0.936147 6.82521 1.18942C6.21181 1.69993 5.64194 2.59826 5.26203 3.64698L5.14726 3.96357L5.13539 2.2698L5.12748 0.572064L4.87816 0.599767C4.64863 0.619554 1.03551 0.896573 0.964277 0.896573C0.948447 0.896573 0.932617 1.10632 0.932617 1.36751V1.83844L1.6964 1.85822C2.78073 1.88593 2.95881 1.9532 3.06962 2.40435C3.09732 2.52703 3.10919 3.77361 3.10128 6.57546C3.08941 11.0394 3.10919 10.7466 2.81239 10.8851C2.68179 10.9484 1.89823 11.0236 1.34023 11.0276H1.17006V11.542V12.0565H4.35578H7.5415V11.546V11.0355L6.80146 11.0117C5.65381 10.9761 5.4599 10.9247 5.33326 10.6397C5.28182 10.517 5.26994 10.2756 5.25411 9.18736C5.23037 7.13346 5.31743 5.92645 5.55883 4.98458C6.06934 3.00587 7.18929 1.6564 8.32902 1.64848H8.49919L8.37651 1.78699C8.1549 2.04027 8.08366 2.23022 8.06388 2.60222C8.0243 3.37787 8.40026 3.88838 9.10863 4.02293C10.2523 4.24059 11.0478 3.366 10.8222 2.1392C10.652 1.20921 9.84076 0.560192 8.796 0.520618C8.57438 0.512704 8.35673 0.512704 8.31319 0.524576Z" fill="white"/>
</svg>
