<svg width="11" height="13" viewBox="0 0 11 13" fill="none" xmlns="http://www.w3.org/2000/svg">
<path d="M5.2301 0.544356C3.7619 0.714525 2.5628 1.45852 1.71591 2.72093C0.841324 4.03084 0.504943 5.7998 0.774047 7.70332C0.967961 9.05675 1.48242 10.1371 2.35306 11.0117C3.07726 11.7399 3.78168 12.1237 4.79874 12.3414C5.32903 12.4522 6.43315 12.4641 6.98719 12.3612C7.7668 12.2187 8.47517 11.9259 9.06879 11.5024C9.46057 11.2215 10.0225 10.6595 10.3075 10.2598C10.4974 9.9907 11 9.13986 11 9.08446C11 9.06863 10.814 8.9499 10.5845 8.81535L10.1689 8.57791L10.0661 8.7639C9.47244 9.81262 8.67305 10.5804 7.83803 10.9049C7.37106 11.0869 7.07821 11.1463 6.5677 11.174C5.62584 11.2215 4.90954 10.9919 4.31989 10.4537C3.52841 9.73347 3.12475 8.6531 3.12475 7.23634V6.67439H7.06238H11V6.18763C11 4.66007 10.6043 3.30267 9.8761 2.33706C9.61491 1.98485 9.04109 1.45456 8.70075 1.24086C7.75493 0.651206 6.48855 0.397932 5.2301 0.544356ZM6.53604 1.50996C7.22463 1.65243 7.75888 2.08775 8.08339 2.75655C8.29709 3.19582 8.41186 3.63114 8.47122 4.26037C8.55037 5.04789 8.47913 5.41593 8.21794 5.55444C8.10318 5.62172 7.89739 5.62568 5.62979 5.63755L3.16433 5.64942V5.47925C3.16433 5.17057 3.24347 4.44241 3.32262 4.01897C3.64317 2.31728 4.50589 1.46248 5.91473 1.45456C6.1126 1.45456 6.38962 1.47831 6.53604 1.50996Z" fill="white"/>
</svg>
