<svg width="10" height="19" viewBox="0 0 10 19" fill="none" xmlns="http://www.w3.org/2000/svg">
<path d="M6.11897 0.236242C6.03191 0.244158 5.82216 0.279774 5.652 0.311434C3.78805 0.679474 2.68789 2.06853 2.31985 4.50629C2.25258 4.96931 2.18134 5.99428 2.18134 6.52853V6.89657H1.19199H0.202637V7.39125V7.88593H1.19199H2.18134L2.17343 12.251C2.16156 16.4023 2.1576 16.6199 2.09032 16.7268C1.96764 16.9088 1.78956 16.9563 1.07327 16.9919C0.713143 17.0078 0.408422 17.0236 0.392593 17.0236C0.372806 17.0276 0.360933 17.2571 0.360933 17.542V18.0565H3.50708H6.65322V17.5262V16.9919L5.7351 16.9801C4.71013 16.9682 4.62307 16.9484 4.48852 16.6991C4.42124 16.5804 4.41728 16.2954 4.40541 12.2272L4.3975 7.88593H5.68366H6.96981V7.39125V6.89657H5.6797H4.38562L4.40937 5.89535C4.4806 2.86397 5.0386 1.52636 6.36433 1.21372C6.75216 1.1227 7.29828 1.15436 7.52781 1.281C7.62279 1.33245 7.72568 1.42347 7.75734 1.48283C7.81274 1.58176 7.81274 1.60551 7.72568 1.79942C7.44075 2.44052 7.42887 2.4801 7.42887 2.76107C7.42887 3.10933 7.53573 3.3626 7.789 3.61983C8.0581 3.89289 8.29555 3.98787 8.71108 3.98391C9.10286 3.98391 9.31656 3.90477 9.57379 3.67128C9.82707 3.44571 9.94975 3.1489 9.96953 2.71754C10.0012 2.03687 9.83103 1.59759 9.34822 1.11875C8.86542 0.635942 8.22036 0.358923 7.34577 0.252073C7.00939 0.212498 6.47118 0.204584 6.11897 0.236242Z" fill="white"/>
</svg>
