<svg width="8" height="13" viewBox="0 0 8 13" fill="none" xmlns="http://www.w3.org/2000/svg">
<path d="M3.0569 0.742235C2.00027 0.82534 1.09798 0.892616 1.05049 0.892616C0.959473 0.896574 0.959473 0.904489 0.959473 1.37542V1.85823L1.38687 1.83052C1.90925 1.79886 2.42372 1.85823 2.64137 1.97695C2.74031 2.03235 2.82737 2.12337 2.87882 2.22231C2.95797 2.37665 2.95797 2.45975 2.95797 6.45674C2.95797 10.893 2.96984 10.6674 2.74031 10.8376C2.60971 10.9326 2.28916 10.984 1.58474 11.0117L0.999047 11.0355V11.546V12.0565H4.02647H7.05389V11.542V11.0276H6.88768C6.36926 11.0196 5.67275 10.9484 5.51841 10.889C5.18995 10.7545 5.21369 11.2056 5.20182 5.57424L5.19391 0.579981L5.0831 0.583939C5.02374 0.587895 4.11353 0.659129 3.0569 0.742235Z" fill="white"/>
</svg>
