<svg width="13" height="18" viewBox="0 0 13 18" fill="none" xmlns="http://www.w3.org/2000/svg">
<path d="M7.19473 0.544357C6.89396 0.587889 6.34388 0.758057 6.08665 0.884693C5.5247 1.16963 4.90734 1.72762 4.4839 2.33311L4.26624 2.64574L4.25437 1.63265C4.25041 1.07465 4.23854 0.619547 4.23062 0.619547C4.22667 0.619547 3.35999 0.682865 2.31128 0.758057C1.26652 0.833248 0.387975 0.896566 0.368187 0.896566C0.344443 0.896566 0.328613 1.09839 0.328613 1.41499V1.93737L0.676866 1.91362C1.11614 1.88592 1.63852 1.94528 1.83243 2.04422C1.93928 2.09962 2.01051 2.17481 2.07383 2.30936L2.16881 2.49932V9.02905C2.16881 15.1116 2.16485 15.5707 2.10153 15.7092C2.00656 15.9229 1.85222 15.9743 1.18341 16.0139C0.878694 16.0337 0.558143 16.0535 0.478995 16.0535H0.328613V16.5679V17.0824H3.27689H6.22516V16.5679V16.0535H6.09852C5.59989 16.0495 4.82819 15.9704 4.70156 15.911C4.41662 15.7764 4.42454 15.8833 4.41266 13.1527L4.40079 10.703L4.59471 10.9365C5.3941 11.8942 6.1381 12.3018 7.30158 12.4206C8.67876 12.5591 9.93722 12.1119 10.9147 11.1265C12.0584 9.97487 12.6757 8.32463 12.6757 6.39737C12.6757 4.60466 12.1217 3.06523 11.073 1.93737C10.0678 0.856993 8.63127 0.338572 7.19473 0.544357ZM8.03766 1.94924C8.50859 2.04422 8.80935 2.20647 9.15761 2.55472C9.83432 3.23144 10.1272 4.26433 10.1707 6.1441C10.238 9.02509 9.64041 10.5091 8.22366 10.9761C7.93872 11.0711 7.8477 11.083 7.31345 11.083C6.63673 11.083 6.37554 11.0315 5.94814 10.8059C5.59197 10.6199 5.35057 10.4023 5.125 10.0619C4.6422 9.34169 4.40475 8.17029 4.40475 6.51609C4.40475 3.28684 5.27934 1.91758 7.3649 1.88988C7.56672 1.88988 7.87145 1.91362 8.03766 1.94924Z" fill="white"/>
</svg>
